<svg width="67" height="67" viewBox="0 0 67 67" fill="none" xmlns="http://www.w3.org/2000/svg">
<path fill-rule="evenodd" clip-rule="evenodd" d="M33.2529 10.3291C24.253 10.3291 16.9563 17.1044 16.9563 25.4619H13.993C13.993 15.5843 22.6159 7.57764 33.2529 7.57764C43.8899 7.57764 52.5129 15.5843 52.5129 25.4619C52.5129 31.654 49.1218 37.11 43.978 40.3196C40.4672 42.5069 37.6979 45.4193 37.6979 48.7265V48.849C37.6979 54.9269 32.3904 59.8547 25.8447 59.8547C19.2991 59.8547 13.993 54.9269 13.993 48.849V46.0976H16.9563V48.849C16.9563 53.4081 20.9362 57.1032 25.8447 57.1032C30.7533 57.1032 34.7346 53.4081 34.7346 48.849V48.7265C34.7346 43.9707 38.6278 40.3402 42.3258 38.0345C46.6868 35.3161 49.5482 30.6992 49.5482 25.4619C49.5482 17.1044 42.2528 10.3291 33.2529 10.3291ZM26.4968 24.1137C27.0237 21.7681 29.1973 19.959 31.8772 19.959C34.9643 19.959 37.3801 22.3597 37.3801 25.2143H40.1315C40.1315 20.7459 36.3882 17.2076 31.8772 17.2076C27.3663 17.2076 23.623 20.7459 23.623 25.2143C23.623 27.4704 24.502 29.274 26.4005 30.3168C27.4309 30.8822 28.1202 31.3623 28.5411 31.7489C28.6429 31.8433 28.7223 31.9236 28.7791 31.9896C28.526 32.1093 28.1119 32.2455 27.4915 32.3652L28.0087 35.0671C28.9332 34.891 29.7916 34.6269 30.4424 34.21C31.122 33.7739 31.7713 33.02 31.6833 31.9401C31.6076 31.0239 31.0092 30.281 30.4011 29.7225C29.7518 29.1254 28.8479 28.5215 27.724 27.9038C27.2853 27.6774 26.9283 27.3195 26.7032 26.8802C27.6565 26.9435 28.8314 27.0893 29.9884 27.4071C31.2857 27.7621 32.4605 28.3041 33.2942 29.0896C34.077 29.8256 34.6149 30.823 34.6286 32.2909C34.4498 34.1633 34.0068 35.3725 33.5006 36.1567C32.9998 36.9298 32.3986 37.3535 31.774 37.5998C31.1247 37.8557 30.408 37.9341 29.6871 37.9341C29.3294 37.9341 28.9855 37.9148 28.6553 37.8928L28.5287 37.8859C28.2531 37.8648 27.977 37.8519 27.7006 37.8474C26.3936 37.8474 25.7333 38.8599 25.4265 39.4542C25.2147 39.8656 25.0069 40.4269 24.8267 40.9097C24.751 41.1133 24.6809 41.3032 24.6176 41.4614C24.3562 42.1149 24.1031 42.5895 23.7991 42.9045C23.5445 43.1659 23.2281 43.3461 22.6751 43.3461C21.9446 43.3461 21.5649 43.181 21.3723 43.049C21.1902 42.9233 21.054 42.7417 20.9843 42.5317C20.8799 42.2064 20.848 41.8622 20.8908 41.5233L20.8894 41.5274V41.5302C20.8894 41.5302 20.8894 41.5329 19.5343 41.2853L18.182 41.0391V41.0418L18.1806 41.0446L18.1793 41.0514L18.1765 41.0707C18.1639 41.1437 18.1543 41.2171 18.1476 41.2908C18.1339 41.4243 18.1201 41.6072 18.1201 41.8218C18.1201 42.2456 18.1696 42.8467 18.4008 43.4754C18.6346 44.1193 19.0652 44.8058 19.8177 45.3203C20.5675 45.8334 21.5236 46.0976 22.6751 46.0976C24.0068 46.0976 25.0248 45.5913 25.7732 44.8209C26.4693 44.1041 26.8834 43.2058 27.1723 42.4822C27.3044 42.1534 27.4062 41.8782 27.4928 41.6389C27.6304 41.2674 27.735 40.9827 27.8739 40.7116C27.895 40.6704 27.9143 40.6351 27.9317 40.6057L28.3444 40.6305L28.4792 40.6401C28.8218 40.6607 29.2359 40.6855 29.6871 40.6855C30.5813 40.6855 31.6833 40.592 32.7824 40.16C33.9037 39.7198 34.9767 38.9397 35.8104 37.6507C36.6303 36.3823 37.1723 34.6888 37.3746 32.4753C37.3782 32.434 37.3801 32.3927 37.3801 32.3514C37.3801 30.0705 36.5079 28.3371 35.1817 27.0866C33.8954 25.8746 32.2432 25.1702 30.7148 24.752C29.174 24.331 27.6538 24.1715 26.5353 24.1151L26.4968 24.1137Z" fill="#357A7B"/>
</svg>
