<svg width="191" height="45" viewBox="0 0 191 45" fill="none" xmlns="http://www.w3.org/2000/svg">
<path d="M34.25 17.5V20H35.5V25C35.5 25.9946 35.1049 26.9484 34.4016 27.6517C33.6984 28.3549 32.7446 28.75 31.75 28.75C30.7554 28.75 29.8016 28.3549 29.0983 27.6517C28.3951 26.9484 28 25.9946 28 25V20H29.25V17.5H25.5V25C25.5023 26.44 26.0008 27.8352 26.9116 28.9506C27.8223 30.066 29.0896 30.8335 30.5 31.1238V32.5C30.5 33.8261 29.9732 35.0979 29.0355 36.0355C28.0979 36.9732 26.8261 37.5 25.5 37.5C24.1739 37.5 22.9021 36.9732 21.9645 36.0355C21.0268 35.0979 20.5 33.8261 20.5 32.5V29.77C21.334 29.4751 22.0369 28.8949 22.4845 28.1319C22.9321 27.3689 23.0956 26.4722 22.946 25.6003C22.7964 24.7285 22.3434 23.9375 21.6671 23.3674C20.9907 22.7972 20.1346 22.4845 19.25 22.4845C18.3654 22.4845 17.5093 22.7972 16.8329 23.3674C16.1566 23.9375 15.7036 24.7285 15.554 25.6003C15.4044 26.4722 15.5679 27.3689 16.0155 28.1319C16.4631 28.8949 17.166 29.4751 18 29.77V32.5C18 34.4891 18.7902 36.3968 20.1967 37.8033C21.6032 39.2098 23.5109 40 25.5 40C27.4891 40 29.3968 39.2098 30.8033 37.8033C32.2098 36.3968 33 34.4891 33 32.5V31.1238C34.4104 30.8335 35.6777 30.066 36.5884 28.9506C37.4991 27.8352 37.9977 26.44 38 25V17.5H34.25ZM19.25 25C19.4972 25 19.7389 25.0733 19.9445 25.2107C20.15 25.348 20.3102 25.5432 20.4048 25.7716C20.4995 26.0001 20.5242 26.2514 20.476 26.4939C20.4278 26.7363 20.3087 26.9591 20.1339 27.1339C19.9591 27.3087 19.7363 27.4278 19.4939 27.476C19.2514 27.5242 19.0001 27.4995 18.7716 27.4049C18.5432 27.3102 18.348 27.15 18.2107 26.9445C18.0733 26.7389 18 26.4972 18 26.25C18 25.9185 18.1317 25.6005 18.3661 25.3661C18.6005 25.1317 18.9185 25 19.25 25Z" fill="#357A7B"/>
<path d="M33 7.5H28V5H25.5V7.5H15.5V5H13V7.5H8C7.33696 7.5 6.70107 7.76339 6.23223 8.23223C5.76339 8.70107 5.5 9.33696 5.5 10V35C5.5 35.663 5.76339 36.2989 6.23223 36.7678C6.70107 37.2366 7.33696 37.5 8 37.5H13V35H8V10H13V12.5H15.5V10H25.5V12.5H28V10H33V15H35.5V10C35.5 9.33696 35.2366 8.70107 34.7678 8.23223C34.2989 7.76339 33.663 7.5 33 7.5Z" fill="#357A7B"/>
<path d="M67.3864 19.6591H61.7045C61.6288 19.0758 61.4735 18.5492 61.2386 18.0795C61.0038 17.6098 60.6932 17.2083 60.3068 16.875C59.9205 16.5417 59.4621 16.2879 58.9318 16.1136C58.4091 15.9318 57.8295 15.8409 57.1932 15.8409C56.0644 15.8409 55.0909 16.1174 54.2727 16.6705C53.4621 17.2235 52.8371 18.0227 52.3977 19.0682C51.9659 20.1136 51.75 21.3788 51.75 22.8636C51.75 24.4091 51.9697 25.7045 52.4091 26.75C52.8561 27.7879 53.4811 28.572 54.2841 29.1023C55.0947 29.625 56.053 29.8864 57.1591 29.8864C57.7803 29.8864 58.3447 29.8068 58.8523 29.6477C59.3674 29.4886 59.8182 29.2576 60.2045 28.9545C60.5985 28.6439 60.9205 28.2689 61.1705 27.8295C61.428 27.3826 61.6061 26.8788 61.7045 26.3182L67.3864 26.3523C67.2879 27.3826 66.9886 28.3977 66.4886 29.3977C65.9962 30.3977 65.3182 31.3106 64.4545 32.1364C63.5909 32.9545 62.5379 33.6061 61.2955 34.0909C60.0606 34.5758 58.6439 34.8182 57.0455 34.8182C54.9394 34.8182 53.053 34.3561 51.3864 33.4318C49.7273 32.5 48.4167 31.1439 47.4545 29.3636C46.4924 27.5833 46.0114 25.4167 46.0114 22.8636C46.0114 20.303 46.5 18.1326 47.4773 16.3523C48.4545 14.572 49.7765 13.2197 51.4432 12.2955C53.1098 11.3712 54.9773 10.9091 57.0455 10.9091C58.4545 10.9091 59.7576 11.1061 60.9545 11.5C62.1515 11.8864 63.2045 12.4545 64.1136 13.2045C65.0227 13.947 65.7614 14.8598 66.3295 15.9432C66.8977 17.0265 67.25 18.2652 67.3864 19.6591ZM76.1619 11.2273V34.5H70.6051V11.2273H76.1619ZM79.6989 34.5V17.0455H85.2557V34.5H79.6989ZM82.483 15.0114C81.7027 15.0114 81.0322 14.7538 80.4716 14.2386C79.911 13.7159 79.6307 13.0871 79.6307 12.3523C79.6307 11.625 79.911 11.0038 80.4716 10.4886C81.0322 9.96591 81.7027 9.70454 82.483 9.70454C83.2708 9.70454 83.9413 9.96591 84.4943 10.4886C85.0549 11.0038 85.3352 11.625 85.3352 12.3523C85.3352 13.0871 85.0549 13.7159 84.4943 14.2386C83.9413 14.7538 83.2708 15.0114 82.483 15.0114ZM94.3494 24.5455V34.5H88.7926V17.0455H94.0767V20.25H94.2699C94.6563 19.1818 95.3153 18.3447 96.2472 17.7386C97.179 17.125 98.2888 16.8182 99.5767 16.8182C100.804 16.8182 101.868 17.0947 102.77 17.6477C103.679 18.1932 104.384 18.9583 104.884 19.9432C105.391 20.9205 105.641 22.0644 105.634 23.375V34.5H100.077V24.4659C100.084 23.4962 99.8381 22.7386 99.3381 22.1932C98.8456 21.6477 98.16 21.375 97.2812 21.375C96.6979 21.375 96.1828 21.5038 95.7358 21.7614C95.2964 22.0114 94.9555 22.3712 94.7131 22.8409C94.4782 23.3106 94.357 23.8788 94.3494 24.5455ZM109.074 34.5V17.0455H114.631V34.5H109.074ZM111.858 15.0114C111.078 15.0114 110.407 14.7538 109.847 14.2386C109.286 13.7159 109.006 13.0871 109.006 12.3523C109.006 11.625 109.286 11.0038 109.847 10.4886C110.407 9.96591 111.078 9.70454 111.858 9.70454C112.646 9.70454 113.316 9.96591 113.869 10.4886C114.43 11.0038 114.71 11.625 114.71 12.3523C114.71 13.0871 114.43 13.7159 113.869 14.2386C113.316 14.7538 112.646 15.0114 111.858 15.0114ZM139.293 19.6591H133.611C133.535 19.0758 133.38 18.5492 133.145 18.0795C132.91 17.6098 132.599 17.2083 132.213 16.875C131.827 16.5417 131.368 16.2879 130.838 16.1136C130.315 15.9318 129.736 15.8409 129.099 15.8409C127.971 15.8409 126.997 16.1174 126.179 16.6705C125.368 17.2235 124.743 18.0227 124.304 19.0682C123.872 20.1136 123.656 21.3788 123.656 22.8636C123.656 24.4091 123.876 25.7045 124.315 26.75C124.762 27.7879 125.387 28.572 126.19 29.1023C127.001 29.625 127.959 29.8864 129.065 29.8864C129.687 29.8864 130.251 29.8068 130.759 29.6477C131.274 29.4886 131.724 29.2576 132.111 28.9545C132.505 28.6439 132.827 28.2689 133.077 27.8295C133.334 27.3826 133.512 26.8788 133.611 26.3182L139.293 26.3523C139.194 27.3826 138.895 28.3977 138.395 29.3977C137.902 30.3977 137.224 31.3106 136.361 32.1364C135.497 32.9545 134.444 33.6061 133.202 34.0909C131.967 34.5758 130.55 34.8182 128.952 34.8182C126.846 34.8182 124.959 34.3561 123.293 33.4318C121.634 32.5 120.323 31.1439 119.361 29.3636C118.399 27.5833 117.918 25.4167 117.918 22.8636C117.918 20.303 118.406 18.1326 119.384 16.3523C120.361 14.572 121.683 13.2197 123.349 12.2955C125.016 11.3712 126.884 10.9091 128.952 10.9091C130.361 10.9091 131.664 11.1061 132.861 11.5C134.058 11.8864 135.111 12.4545 136.02 13.2045C136.929 13.947 137.668 14.8598 138.236 15.9432C138.804 17.0265 139.156 18.2652 139.293 19.6591ZM147.432 34.7955C146.318 34.7955 145.33 34.6098 144.466 34.2386C143.61 33.8598 142.932 33.2917 142.432 32.5341C141.939 31.7689 141.693 30.8106 141.693 29.6591C141.693 28.6894 141.864 27.8712 142.205 27.2045C142.545 26.5379 143.015 25.9962 143.614 25.5795C144.212 25.1629 144.902 24.8485 145.682 24.6364C146.462 24.4167 147.295 24.2689 148.182 24.1932C149.174 24.1023 149.973 24.0076 150.58 23.9091C151.186 23.803 151.625 23.6553 151.898 23.4659C152.178 23.2689 152.318 22.9924 152.318 22.6364V22.5795C152.318 21.9962 152.117 21.5455 151.716 21.2273C151.314 20.9091 150.773 20.75 150.091 20.75C149.356 20.75 148.765 20.9091 148.318 21.2273C147.871 21.5455 147.587 21.9848 147.466 22.5455L142.341 22.3636C142.492 21.303 142.883 20.3561 143.511 19.5227C144.148 18.6818 145.019 18.0227 146.125 17.5455C147.239 17.0606 148.576 16.8182 150.136 16.8182C151.25 16.8182 152.277 16.9508 153.216 17.2159C154.155 17.4735 154.973 17.8523 155.67 18.3523C156.367 18.8447 156.905 19.4508 157.284 20.1705C157.67 20.8902 157.864 21.7121 157.864 22.6364V34.5H152.636V32.0682H152.5C152.189 32.6591 151.792 33.1591 151.307 33.5682C150.83 33.9773 150.265 34.2841 149.614 34.4886C148.97 34.6932 148.242 34.7955 147.432 34.7955ZM149.148 31.1591C149.746 31.1591 150.284 31.0379 150.761 30.7955C151.246 30.553 151.633 30.2197 151.92 29.7955C152.208 29.3636 152.352 28.8636 152.352 28.2955V26.6364C152.193 26.7197 152 26.7955 151.773 26.8636C151.553 26.9318 151.311 26.9962 151.045 27.0568C150.78 27.1174 150.508 27.1705 150.227 27.2159C149.947 27.2614 149.678 27.303 149.42 27.3409C148.898 27.4242 148.451 27.553 148.08 27.7273C147.716 27.9015 147.436 28.1288 147.239 28.4091C147.049 28.6818 146.955 29.0076 146.955 29.3864C146.955 29.9621 147.159 30.4015 147.568 30.7045C147.985 31.0076 148.511 31.1591 149.148 31.1591ZM161.261 34.5V17.0455H166.659V20.2273H166.841C167.159 19.0758 167.678 18.2197 168.398 17.6591C169.117 17.0909 169.955 16.8068 170.909 16.8068C171.167 16.8068 171.432 16.8258 171.705 16.8636C171.977 16.8939 172.231 16.9432 172.466 17.0114V21.8409C172.201 21.75 171.852 21.678 171.42 21.625C170.996 21.572 170.617 21.5455 170.284 21.5455C169.625 21.5455 169.03 21.6932 168.5 21.9886C167.977 22.2765 167.564 22.6818 167.261 23.2045C166.966 23.7197 166.818 24.3258 166.818 25.0227V34.5H161.261ZM181.983 34.8295C180.157 34.8295 178.581 34.4697 177.256 33.75C175.938 33.0227 174.922 31.9886 174.21 30.6477C173.506 29.2992 173.153 27.697 173.153 25.8409C173.153 24.0379 173.509 22.4621 174.222 21.1136C174.934 19.7576 175.938 18.7045 177.233 17.9545C178.528 17.197 180.055 16.8182 181.812 16.8182C183.055 16.8182 184.191 17.0114 185.222 17.3977C186.252 17.7841 187.142 18.3561 187.892 19.1136C188.642 19.8712 189.225 20.8068 189.642 21.9205C190.059 23.0265 190.267 24.2955 190.267 25.7273V27.1136H175.097V23.8864H185.097C185.089 23.2955 184.949 22.7689 184.676 22.3068C184.403 21.8447 184.028 21.4848 183.551 21.2273C183.081 20.9621 182.54 20.8295 181.926 20.8295C181.305 20.8295 180.748 20.9697 180.256 21.25C179.763 21.5227 179.373 21.8977 179.085 22.375C178.797 22.8447 178.646 23.3788 178.631 23.9773V27.2614C178.631 27.9735 178.771 28.5985 179.051 29.1364C179.331 29.6667 179.729 30.0795 180.244 30.375C180.759 30.6705 181.373 30.8182 182.085 30.8182C182.578 30.8182 183.025 30.75 183.426 30.6136C183.828 30.4773 184.172 30.2765 184.46 30.0114C184.748 29.7462 184.964 29.4205 185.108 29.0341L190.21 29.1818C189.998 30.3258 189.532 31.322 188.812 32.1705C188.1 33.0114 187.165 33.6667 186.006 34.1364C184.847 34.5985 183.506 34.8295 181.983 34.8295Z" fill="#357A7B"/>
</svg>
