<svg width="59" height="59" viewBox="0 0 59 59" fill="none" xmlns="http://www.w3.org/2000/svg">
<path d="M45.533 24.6919C44.2755 24.1841 42.7521 24.0874 41.809 25.0546L24.7124 42.127C23.7693 43.0701 23.8419 44.6177 24.3497 45.851C24.6399 46.5765 24.7366 47.3019 24.7366 48.0999C24.7366 49.7033 24.0997 51.241 22.9659 52.3747C21.8322 53.5084 20.2945 54.1454 18.6912 54.1454C17.0878 54.1454 15.5501 53.5084 14.4164 52.3747C13.2826 51.241 12.6457 49.7033 12.6457 48.0999C12.6457 47.4712 12.0653 46.8908 11.4366 46.8908C10.5486 46.8805 9.67367 46.6747 8.87417 46.288C8.07467 45.9012 7.3702 45.3431 6.81085 44.6533C6.25151 43.9634 5.85103 43.1588 5.63789 42.2966C5.42475 41.4345 5.40419 40.5359 5.57767 39.6649C5.75115 38.7939 6.11441 37.9718 6.64161 37.2571C7.16882 36.5424 7.84702 35.9526 8.62799 35.5297C9.40897 35.1068 10.2735 34.8612 11.1602 34.8103C12.0468 34.7594 12.9338 34.9044 13.7581 35.2352C14.9672 35.743 16.5148 35.8397 17.4579 34.8725L34.5544 17.8001C35.4975 16.857 35.425 15.3094 34.9172 14.0761C34.627 13.3506 34.4093 12.6252 34.4093 11.8272C34.4093 10.2238 35.0463 8.68615 36.18 7.55241C37.3138 6.41867 38.8514 5.78174 40.4548 5.78174C42.0582 5.78174 43.5958 6.41867 44.7296 7.55241C45.8633 8.68615 46.5003 10.2238 46.5003 11.8272C46.5244 12.4559 47.0806 13.0121 47.7093 13.0363C48.6035 13.0252 49.489 13.2126 50.302 13.585C51.115 13.9575 51.8352 14.5056 52.4108 15.1899C52.9864 15.8743 53.403 16.6778 53.6306 17.5426C53.8582 18.4074 53.8911 19.3119 53.727 20.1909C53.5629 21.07 53.2058 21.9016 52.6814 22.626C52.1571 23.3504 51.4786 23.9494 50.6948 24.38C49.9111 24.8105 49.0415 25.0618 48.1489 25.1157C47.2563 25.1697 46.3629 25.0249 45.533 24.6919V24.6919Z" stroke="#357A7B" stroke-width="2" stroke-linecap="round" stroke-linejoin="round"/>
</svg>
