<svg width="58" height="58" viewBox="0 0 58 58" fill="none" xmlns="http://www.w3.org/2000/svg">
<path d="M15.7883 6.33496H16.8382C22.3677 7.15265 23.8668 10.2907 28.6853 10.2907C33.5037 10.2907 35.0028 7.15265 40.5335 6.33496H41.1284C42.6068 6.33496 44.0708 6.62616 45.4367 7.19193C46.8026 7.7577 48.0436 8.58696 49.0891 9.63237C50.1345 10.6778 50.9637 11.9189 51.5295 13.2848C52.0953 14.6506 52.3865 16.1146 52.3865 17.593V18.3349C52.3865 21.7751 48.7246 25.7024 47.6462 29.4235C46.5026 33.3745 45.7193 36.6049 45.4894 39.9835C44.9502 47.9009 42.2507 51.3672 39.3508 51.3672C35.0206 51.3672 31.1763 33.621 28.7599 33.621C26.3424 33.621 21.5488 51.3672 18.0197 51.3672C15.8665 51.3672 13.078 50.0933 12.0305 39.9835C11.6133 35.9614 10.9094 33.5214 9.72433 29.4235C8.68148 25.8209 5.16422 21.5168 4.98409 17.6535C4.91614 16.1924 5.14525 14.7327 5.65755 13.3627C6.16986 11.9926 6.95472 10.7408 7.96466 9.68273C8.97461 8.6247 10.1887 7.78251 11.5334 7.2071C12.8781 6.63168 14.3256 6.33498 15.7883 6.33496Z" stroke="#357A7B" stroke-width="2" stroke-linecap="round" stroke-linejoin="round"/>
<path d="M18.5909 15.1792L38.1669 21.4908M18.5909 21.4908L38.1669 15.1792" stroke="#357A7B" stroke-width="2" stroke-linecap="round" stroke-linejoin="round"/>
</svg>
